<svg width="8" height="8" viewBox="0 0 8 8" fill="none" xmlns="http://www.w3.org/2000/svg">
<g clip-path="url(#clip0)">
<path d="M4.44172 4.00074L7.90823 0.534219C8.03028 0.412173 8.03028 0.214298 7.90823 0.0922673C7.78618 -0.0297636 7.58831 -0.0297792 7.46628 0.0922673L3.99975 3.55879L0.533243 0.0922673C0.411197 -0.0297792 0.213322 -0.0297792 0.0912908 0.0922673C-0.0307402 0.214314 -0.0307558 0.412188 0.0912908 0.534219L3.5578 4.00073L0.0912908 7.46725C-0.0307558 7.58929 -0.0307558 7.78717 0.0912908 7.9092C0.152306 7.97021 0.232291 8.00071 0.312275 8.00071C0.392259 8.00071 0.472228 7.97021 0.533259 7.9092L3.99975 4.44269L7.46626 7.9092C7.52728 7.97021 7.60726 8.00071 7.68724 8.00071C7.76723 8.00071 7.8472 7.97021 7.90823 7.9092C8.03028 7.78715 8.03028 7.58928 7.90823 7.46725L4.44172 4.00074Z" fill="#BE3F3F"/>
</g>
<defs>
<clipPath id="clip0">
<rect width="8" height="8" fill="white"/>
</clipPath>
</defs>
</svg>
