<svg width="24" height="24" viewBox="0 0 24 24" fill="none" xmlns="http://www.w3.org/2000/svg">
<g clip-path="url(#clip0)">
<path d="M11.3414 18.2074L0.2714 7.10666C-0.0910829 6.74296 -0.0904735 6.15412 0.273275 5.79103C0.636977 5.42822 1.22615 5.42915 1.58891 5.7929L12 16.2329L22.4111 5.79253C22.7739 5.42883 23.3627 5.42789 23.7265 5.79065C23.9088 5.97267 24 6.21112 24 6.44957C24 6.68742 23.9094 6.92493 23.7284 7.10662L12.6586 18.2074C12.4844 18.3825 12.2472 18.4808 12 18.4808C11.7529 18.4808 11.516 18.3823 11.3414 18.2074Z" fill="#398860"/>
</g>
<defs>
<clipPath id="clip0">
<rect width="24" height="24" fill="white" transform="matrix(-4.37114e-08 1 1 4.37114e-08 0 0)"/>
</clipPath>
</defs>
</svg>
