<svg width="24" height="24" viewBox="0 0 24 24" fill="none" xmlns="http://www.w3.org/2000/svg">
<g clip-path="url(#clip0)">
<path d="M18.2072 12.6585L7.10654 23.7285C6.74284 24.091 6.154 24.0904 5.79091 23.7266C5.4281 23.3629 5.42903 22.7737 5.79278 22.411L16.2327 11.9999L5.7924 1.58877C5.4287 1.22596 5.42776 0.637163 5.79053 0.273415C5.97254 0.091072 6.211 -9.92426e-05 6.44945 -9.92635e-05C6.68729 -9.92843e-05 6.92481 0.0904616 7.10649 0.27154L18.2072 11.3413C18.3824 11.5155 18.4807 11.7527 18.4807 11.9999C18.4807 12.247 18.3821 12.4839 18.2072 12.6585Z" fill="#398860"/>
</g>
<defs>
<clipPath id="clip0">
<rect width="24" height="24" fill="white" transform="matrix(1 -8.74228e-08 -8.74228e-08 -1 0 24)"/>
</clipPath>
</defs>
</svg>
