<svg width="18" height="18" viewBox="0 0 18 18" fill="none" xmlns="http://www.w3.org/2000/svg">
<path d="M11.9691 8.6481L8.23141 5.93112C8.09424 5.83169 7.91215 5.81671 7.76181 5.89398C7.61026 5.97065 7.51562 6.12638 7.51562 6.2947V11.7269C7.51562 11.897 7.61026 12.0521 7.76181 12.1288C7.8259 12.1611 7.89598 12.1773 7.96666 12.1773C8.0589 12.1773 8.15234 12.1479 8.23141 12.0898L11.9691 9.37526C12.0871 9.28841 12.1559 9.15424 12.1559 9.01168C12.1565 8.86673 12.0859 8.73315 11.9691 8.6481Z" fill="white"/>
<path d="M9.0003 0.00201416C4.02875 0.00201416 0 4.03077 0 9.00231C0 13.9721 4.02875 17.9996 9.0003 17.9996C13.9707 17.9996 18 13.9715 18 9.00231C18.0006 4.03077 13.9707 0.00201416 9.0003 0.00201416ZM9.0003 16.498C4.86014 16.498 1.50344 13.1431 1.50344 9.00231C1.50344 4.86335 4.86014 1.50426 9.0003 1.50426C13.1399 1.50426 16.496 4.86275 16.496 9.00231C16.4966 13.1431 13.1399 16.498 9.0003 16.498Z" fill="white"/>
</svg>
