<svg width="24" height="24" viewBox="0 0 24 24" fill="none" xmlns="http://www.w3.org/2000/svg">
<g clip-path="url(#clip0)">
<path d="M5.79276 12.6585L16.8935 23.7285C17.2572 24.091 17.846 24.0904 18.2091 23.7266C18.5719 23.3629 18.571 22.7737 18.2072 22.411L7.76726 11.9999L18.2076 1.58877C18.5713 1.22596 18.5722 0.637163 18.2095 0.273415C18.0275 0.091072 17.789 -9.92426e-05 17.5506 -9.92635e-05C17.3127 -9.92843e-05 17.0752 0.0904616 16.8935 0.27154L5.79276 11.3413C5.61758 11.5155 5.51929 11.7527 5.51929 11.9999C5.51929 12.247 5.61787 12.4839 5.79276 12.6585Z" fill="#398860"/>
</g>
<defs>
<clipPath id="clip0">
<rect width="24" height="24" fill="white" transform="translate(24 24) rotate(-180)"/>
</clipPath>
</defs>
</svg>
