<svg width="210" height="38" viewBox="0 0 210 38" fill="none" xmlns="http://www.w3.org/2000/svg">
<g clip-path="url(#clip0)">
<path d="M0.15637 36.2398H41.1253M41.1253 36.2398V36.5519H0.15637H0V12.3591L13.9169 0.18457L17.3571 3.15015L20.6408 0.18457L24.081 3.15015L27.0438 0.340653M41.1253 36.2398V12.3591L27.2084 0.18457L27.0438 0.340653M27.0438 0.340653L40.9689 12.5151M0.15637 12.5151L13.9169 0.340653M1.72007 34.6789V13.2956L13.9169 2.83798L26.2701 13.2956V34.6789H18.7644V23.2849H9.22582V34.6789H1.72007Z" stroke="white"/>
<path d="M32.8378 34.5237H28.1467V12.516L18.9209 4.55578L20.641 2.83887L32.8378 13.2964V34.5237Z" stroke="white"/>
<path d="M39.4042 34.5237H34.7131V12.516L25.4873 4.55578L27.2074 2.83887L39.4042 13.2964V34.5237Z" stroke="white"/>
<path d="M61.9789 2.11779C60.4879 2.11779 59.3154 2.62055 58.4613 3.62607C57.6073 4.63159 57.1802 6.01935 57.1802 7.78934C57.1802 9.64197 57.5892 11.0435 58.407 11.9939C59.2322 12.9443 60.4228 13.4196 61.9789 13.4196C62.652 13.4196 63.3034 13.3576 63.9331 13.2336C64.5628 13.1028 65.2178 12.9375 65.8982 12.7377V14.8555C64.6533 15.3032 63.2419 15.527 61.6641 15.527C59.3407 15.527 57.5566 14.859 56.3117 13.5229C55.0668 12.1799 54.4443 10.2618 54.4443 7.76867C54.4443 6.19841 54.7447 4.82443 55.3454 3.64673C55.9534 2.46903 56.8292 1.56682 57.9728 0.940092C59.1164 0.313364 60.459 0 62.0006 0C63.6219 0 65.1201 0.323695 66.4953 0.971084L65.5616 3.02689C65.026 2.78584 64.4579 2.57578 63.8571 2.39672C63.2636 2.21077 62.6376 2.11779 61.9789 2.11779Z" fill="white"/>
<path d="M71.4894 3.89467V9.75217C71.4894 10.434 71.4315 11.4361 71.3157 12.7584L77.3412 3.89467H80.4571V15.3204H78.0035V9.56621C78.0035 9.24941 78.0216 8.73632 78.0577 8.02694C78.1012 7.31757 78.1374 6.80103 78.1663 6.47734L72.1625 15.3204H69.0467V3.89467H71.4894Z" fill="white"/>
<path d="M94.5926 3.89467V15.3204H92.0304V5.81618H86.6454V15.3204H84.0941V3.89467H94.5926Z" fill="white"/>
<path d="M111.475 3.89467H114.276L109.314 9.40092L114.699 15.3204H111.768L106.578 9.52489V15.3204H104.027V3.89467H106.578V9.44225L111.475 3.89467Z" fill="white"/>
<path d="M127.336 9.58688C127.336 11.4533 126.833 12.9099 125.827 13.9568C124.821 15.0036 123.421 15.527 121.626 15.527C120.504 15.527 119.512 15.286 118.651 14.8039C117.79 14.3218 117.128 13.6296 116.664 12.7274C116.201 11.8252 115.969 10.7783 115.969 9.58688C115.969 7.73424 116.469 6.28794 117.468 5.24799C118.467 4.20803 119.874 3.68805 121.691 3.68805C123.428 3.68805 124.803 4.22181 125.817 5.28931C126.83 6.34993 127.336 7.78245 127.336 9.58688ZM118.597 9.58688C118.597 12.2246 119.621 13.5435 121.669 13.5435C123.696 13.5435 124.709 12.2246 124.709 9.58688C124.709 6.97666 123.689 5.67155 121.648 5.67155C120.576 5.67155 119.798 6.00902 119.313 6.68395C118.836 7.35889 118.597 8.32653 118.597 9.58688Z" fill="white"/>
<path d="M137.173 12.996L137.314 12.5001C137.611 11.4739 137.868 10.6854 138.085 10.1344L140.777 3.89467H144.175V15.3204H141.819V6.0951L141.624 6.71495C141.298 7.82377 141.023 8.6399 140.799 9.16332L138.172 15.3204H136.239L133.612 9.12199C133.25 8.22667 132.917 7.21771 132.613 6.0951V15.3204H130.279V3.89467H133.655L136.261 9.94845C136.492 10.5063 136.796 11.5222 137.173 12.996Z" fill="white"/>
<path d="M158.322 3.89467V15.3204H155.759V5.81618H150.374V15.3204H147.823V3.89467H158.322Z" fill="white"/>
<path d="M171.849 15.3204H169.276V5.79551H165.965C165.762 8.24733 165.487 10.162 165.14 11.5394C164.799 12.9168 164.351 13.9223 163.793 14.5559C163.243 15.1896 162.527 15.5064 161.644 15.5064C161.086 15.5064 160.62 15.4306 160.243 15.2791V13.3782C160.511 13.4747 160.779 13.5229 161.047 13.5229C161.785 13.5229 162.364 12.7343 162.784 11.1571C163.211 9.5731 163.544 7.15228 163.783 3.89467H171.849V15.3204Z" fill="white"/>
<path d="M180.752 15.527C178.884 15.527 177.422 15.0105 176.366 13.9774C175.316 12.9375 174.791 11.5084 174.791 9.69018C174.791 7.82377 175.28 6.35681 176.257 5.28931C177.234 4.22181 178.577 3.68805 180.285 3.68805C181.87 3.68805 183.122 4.14605 184.041 5.06204C184.96 5.97802 185.42 7.23837 185.42 8.84307V10.1551H177.419C177.455 11.2639 177.77 12.1179 178.363 12.7171C178.957 13.3094 179.793 13.6055 180.871 13.6055C181.58 13.6055 182.239 13.5435 182.847 13.4196C183.462 13.2887 184.121 13.0752 184.823 12.7791V14.7522C184.2 15.0346 183.571 15.2343 182.934 15.3514C182.297 15.4685 181.57 15.527 180.752 15.527ZM180.285 5.52692C179.474 5.52692 178.823 5.77141 178.331 6.2604C177.846 6.74938 177.556 7.4622 177.462 8.39885H182.912C182.898 7.45531 182.659 6.74249 182.196 6.2604C181.732 5.77141 181.095 5.52692 180.285 5.52692Z" fill="white"/>
<path d="M195.767 3.89467H198.568L193.606 9.40092L198.991 15.3204H196.06L190.87 9.52489V15.3204H188.319V3.89467H190.87V9.44225L195.767 3.89467Z" fill="white"/>
<path d="M210 3.89467V5.79551H206.091V15.3204H203.529V5.79551H199.621V3.89467H210Z" fill="white"/>
<path d="M54.4443 27.6548H54.9475C55.3779 26.9396 55.7386 26.1367 56.0295 25.246C56.3204 24.3554 56.5075 23.4621 56.5906 22.566H59.9524V27.6548H60.794V30.1162H59.7699V28.4847H55.4685V30.1162H54.4443V27.6548ZM57.4811 23.404C57.4158 24.0167 57.2496 24.7278 56.9824 25.5375C56.7153 26.3445 56.411 27.0503 56.0696 27.6548H58.8882V23.404H57.4811Z" fill="white"/>
<path d="M67.629 25.5173C67.629 26.4808 67.3634 27.2297 66.832 27.7641C66.3036 28.2985 65.554 28.5657 64.5833 28.5657C63.6007 28.5657 62.8453 28.3012 62.3169 27.7722C61.7914 27.2405 61.5287 26.4862 61.5287 25.5092C61.5287 24.5322 61.7929 23.7819 62.3213 23.2583C62.8527 22.7347 63.6097 22.4729 64.5922 22.4729C65.56 22.4729 66.308 22.7387 66.8364 23.2704C67.3648 23.8021 67.629 24.5511 67.629 25.5173ZM62.6597 25.5173C62.6597 26.246 62.8215 26.7993 63.1451 27.1771C63.4686 27.5523 63.9481 27.7398 64.5833 27.7398C65.2156 27.7398 65.6921 27.5536 66.0127 27.1812C66.3362 26.8087 66.498 26.2541 66.498 25.5173C66.498 24.7913 66.3377 24.2407 66.0171 23.8655C65.6995 23.4904 65.2245 23.3028 64.5922 23.3028C63.954 23.3028 63.4716 23.4904 63.1451 23.8655C62.8215 24.2407 62.6597 24.7913 62.6597 25.5173Z" fill="white"/>
<path d="M71.8414 28.4847L69.9534 23.5417H69.9178C69.9682 24.2758 69.9935 24.964 69.9935 25.6063V28.4847H69.0272V22.566H70.5278L72.3356 27.2743H72.3623L74.2236 22.566H75.7287V28.4847H74.7045V25.5578C74.7045 25.2636 74.7119 24.8803 74.7268 24.408C74.7446 23.9357 74.7594 23.6496 74.7713 23.5498H74.7357L72.7809 28.4847H71.8414Z" fill="white"/>
<path d="M81.4817 28.4847L80.8315 26.8411H78.3424L77.7057 28.4847H76.5836L79.0193 22.5417H80.177L82.6127 28.4847H81.4817ZM80.551 26.0071L79.941 24.3959C79.8965 24.2879 79.8341 24.1179 79.754 23.8858C79.6768 23.6537 79.6234 23.4836 79.5937 23.3757C79.5135 23.7077 79.3963 24.0707 79.2419 24.4647L78.6541 26.0071H80.551Z" fill="white"/>
<path d="M85.8409 22.566H86.8161V25.6428C86.8161 25.964 86.8072 26.2892 86.7894 26.6184C86.7716 26.945 86.7582 27.1663 86.7493 27.2824H86.7894L90.1156 22.566H91.3579V28.4847H90.3783V25.4323C90.3783 24.9654 90.4065 24.3986 90.4629 23.7319H90.4273L87.0877 28.4847H85.8409V22.566Z" fill="white"/>
<path d="M97.1911 23.9506C97.1911 24.3365 97.0501 24.6523 96.7681 24.8979C96.489 25.1435 96.1016 25.3 95.6059 25.3675V25.3918C96.1758 25.4539 96.6092 25.6077 96.9061 25.8533C97.2059 26.0962 97.3558 26.4147 97.3558 26.8087C97.3558 27.3593 97.1184 27.7898 96.6434 28.1001C96.1714 28.4105 95.5183 28.5657 94.6842 28.5657C93.8174 28.5657 93.1242 28.4591 92.6047 28.2459V27.3998C92.8927 27.5239 93.2147 27.6197 93.571 27.6872C93.9302 27.7547 94.2582 27.7884 94.555 27.7884C95.6979 27.7884 96.2694 27.4484 96.2694 26.7682C96.2694 26.4552 96.0972 26.2163 95.7528 26.0517C95.4114 25.887 94.9038 25.8047 94.23 25.8047H93.4463V25.0274H94.181C95.4782 25.0274 96.1269 24.713 96.1269 24.0842C96.1269 23.8332 96.0155 23.6348 95.7929 23.489C95.5732 23.3433 95.2645 23.2704 94.8667 23.2704C94.5521 23.2704 94.2522 23.3082 93.9673 23.3838C93.6823 23.4594 93.3869 23.5876 93.0812 23.7684L92.5958 23.1125C93.2637 22.6915 94.0504 22.481 94.9558 22.481C95.6445 22.481 96.1892 22.6146 96.59 22.8818C96.9907 23.149 97.1911 23.5052 97.1911 23.9506Z" fill="white"/>
<path d="M58.0199 32.7326C57.4084 32.7326 56.9275 32.9296 56.5772 33.3237C56.2269 33.7177 56.0518 34.2615 56.0518 34.9551C56.0518 35.6812 56.2195 36.2304 56.555 36.6028C56.8934 36.9753 57.3817 37.1615 58.0199 37.1615C58.296 37.1615 58.5632 37.1372 58.8214 37.0886C59.0797 37.0374 59.3483 36.9726 59.6274 36.8943V37.7242C59.1168 37.8997 58.5379 37.9874 57.8908 37.9874C56.9379 37.9874 56.2062 37.7256 55.6956 37.202C55.185 36.6757 54.9297 35.9241 54.9297 34.9471C54.9297 34.3317 55.0529 33.7933 55.2993 33.3317C55.5486 32.8702 55.9078 32.5167 56.3768 32.2711C56.8459 32.0255 57.3965 31.9027 58.0288 31.9027C58.6938 31.9027 59.3083 32.0295 59.8723 32.2832L59.4893 33.0888C59.2697 32.9944 59.0366 32.9121 58.7903 32.8419C58.5468 32.769 58.2901 32.7326 58.0199 32.7326Z" fill="white"/>
<path d="M61.03 31.9877H62.0052V35.0645C62.0052 35.3856 61.9963 35.7108 61.9784 36.0401C61.9606 36.3667 61.9473 36.588 61.9384 36.704H61.9784L65.3047 31.9877H66.547V37.9064H65.5674V34.8539C65.5674 34.387 65.5956 33.8203 65.652 33.1536H65.6164L62.2768 37.9064H61.03V31.9877Z" fill="white"/>
<path d="M73.2574 37.9064H72.1887V32.8176H69.3166V37.9064H68.2524V31.9877H73.2574V37.9064Z" fill="white"/>
<path d="M82.3499 37.9064H81.2813V32.8176H78.4092V37.9064H77.345V31.9877H82.3499V37.9064Z" fill="white"/>
<path d="M88.1074 37.9064L87.4573 36.2628H84.9682L84.3314 37.9064H83.2093L85.645 31.9634H86.8027L89.2384 37.9064H88.1074ZM87.1768 35.4288L86.5667 33.8176C86.5222 33.7096 86.4599 33.5396 86.3797 33.3075C86.3025 33.0754 86.2491 32.9053 86.2194 32.7974C86.1393 33.1293 86.022 33.4923 85.8676 33.8864L85.2799 35.4288H87.1768Z" fill="white"/>
<path d="M95.2319 37.9064H94.1632V35.2385H91.162V37.9064H90.0978V31.9877H91.162V34.4086H94.1632V31.9877H95.2319V37.9064Z" fill="white"/>
<path d="M100.629 37.9064H96.9462V31.9877H100.629V32.8055H98.0104V34.4167H100.464V35.2264H98.0104V37.0846H100.629V37.9064Z" fill="white"/>
<path d="M106.925 37.9064H105.861V32.8176H104.008C103.774 34.5449 103.585 35.7203 103.443 36.3437C103.303 36.9672 103.106 37.4017 102.851 37.6473C102.595 37.8902 102.257 38.0076 101.835 37.9995C101.619 37.9995 101.412 37.9658 101.216 37.8983V37.0927C101.386 37.1602 101.55 37.1939 101.711 37.1939C101.924 37.1939 102.091 37.0778 102.209 36.8457C102.331 36.6109 102.463 36.0941 102.606 35.2952C102.751 34.4963 102.923 33.3938 103.122 31.9877H106.925V37.9064Z" fill="white"/>
<path d="M112.331 37.9064H108.648V31.9877H112.331V32.8055H109.712V34.4167H112.166V35.2264H109.712V37.0846H112.331V37.9064Z" fill="white"/>
<path d="M113.742 31.9877H114.717V35.0645C114.717 35.3856 114.708 35.7108 114.691 36.0401C114.673 36.3667 114.659 36.588 114.65 36.704H114.691L118.017 31.9877H119.259V37.9064H118.279V34.8539C118.279 34.387 118.308 33.8203 118.364 33.1536H118.328L114.989 37.9064H113.742V31.9877ZM116.534 31.514C115.905 31.514 115.443 31.4115 115.149 31.2064C114.858 30.9985 114.696 30.6531 114.664 30.17H115.612C115.63 30.3643 115.67 30.5154 115.732 30.6234C115.798 30.7313 115.89 30.8096 116.009 30.8582C116.13 30.9041 116.314 30.927 116.561 30.927C116.852 30.927 117.073 30.869 117.224 30.7529C117.376 30.6342 117.468 30.4399 117.5 30.17H118.466C118.422 30.6342 118.242 30.9742 117.928 31.1902C117.613 31.4061 117.148 31.514 116.534 31.514Z" fill="white"/>
</g>
<defs>
<clipPath id="clip0">
<rect width="210" height="38" fill="white"/>
</clipPath>
</defs>
</svg>
