<svg width="24" height="24" viewBox="0 0 24 24" fill="none" xmlns="http://www.w3.org/2000/svg">
<path d="M23.9655 9.24625C23.8829 8.99167 23.6628 8.80619 23.398 8.7677L15.9579 7.68653L12.6305 0.944656C12.5121 0.704656 12.2677 0.552734 12 0.552734C11.7324 0.552734 11.488 0.704703 11.3695 0.944656L8.04195 7.68658L0.602009 8.7677C0.337166 8.80619 0.117135 8.99172 0.0344479 9.24625C-0.0482863 9.50078 0.0207136 9.7802 0.212338 9.967L5.59583 15.2149L4.32514 22.625C4.27991 22.8888 4.38838 23.1554 4.60489 23.3127C4.82136 23.4699 5.10833 23.4907 5.34538 23.3662L12 19.8676L18.6544 23.3662C18.7573 23.4203 18.8696 23.447 18.9815 23.447C19.1273 23.447 19.2724 23.4017 19.3949 23.3127C19.6114 23.1554 19.7198 22.8888 19.6746 22.625L18.4036 15.2149L23.7876 9.96704C23.9793 9.7802 24.0483 9.50078 23.9655 9.24625ZM17.1573 14.4659C16.9915 14.6274 16.9159 14.8602 16.9551 15.0883L18.0478 21.4585L12.3273 18.4509C12.1224 18.3432 11.8777 18.3432 11.6728 18.4509L5.95198 21.4585L7.04436 15.0882C7.08345 14.8601 7.00784 14.6274 6.84218 14.4659L2.21418 9.95448L8.61002 9.025C8.83906 8.99172 9.03696 8.84791 9.13943 8.64039L12 2.8445L14.8604 8.64034C14.9629 8.84786 15.1608 8.99172 15.3898 9.025L21.7858 9.95443L17.1573 14.4659Z" fill="white"/>
</svg>
