<svg width="24" height="24" viewBox="0 0 24 24" fill="none" xmlns="http://www.w3.org/2000/svg">
<g clip-path="url(#clip0)">
<path d="M23.1551 13.893C23.8711 7.86603 22.8111 4.06103 20.8991 2.34002L20.9001 2.33902C17.8141 -0.599975 7.39208 -1.03498 3.70008 2.47102C2.04208 4.18603 1.45808 6.70303 1.39408 9.81903C1.33008 12.936 1.25408 18.775 6.69508 20.359H6.70008L6.69508 22.778C6.69508 22.778 6.65808 23.758 7.28408 23.955C8.00008 24.187 8.32408 23.732 10.5511 21.072C14.2751 21.395 17.1351 20.655 17.4601 20.547C18.2121 20.295 22.4671 19.732 23.1551 13.893ZM10.9181 19.37C10.9181 19.37 8.56108 22.309 7.82808 23.072C7.58808 23.32 7.32508 23.297 7.32908 22.805C7.32908 22.482 7.34708 18.789 7.34708 18.789C2.73408 17.467 3.00608 12.495 3.05608 9.89403C3.10608 7.29203 3.58208 5.16103 4.98608 3.72603C8.22508 0.689025 17.3621 1.36802 19.6901 3.55603C22.5361 6.07903 21.5231 13.207 21.5291 13.45C20.9441 18.324 17.4961 18.633 16.8621 18.844C16.5911 18.934 14.0761 19.581 10.9181 19.37Z" fill="white"/>
<path d="M12.2219 4.29688C11.8369 4.29688 11.8369 4.89687 12.2219 4.90187C15.2089 4.92487 17.6689 7.00688 17.6959 10.8259C17.6959 11.2289 18.2859 11.2239 18.2809 10.8209H18.2799C18.2479 6.70588 15.5619 4.31987 12.2219 4.29688Z" fill="white"/>
<path d="M16.1509 10.193C16.1419 10.591 16.7309 10.61 16.7359 10.207C16.7849 7.93804 15.3859 6.06904 12.7569 5.87204C12.3719 5.84404 12.3319 6.44904 12.7159 6.47704C14.9959 6.65004 16.1969 8.20604 16.1509 10.193Z" fill="white"/>
<path d="M15.5212 12.7741C15.0272 12.4881 14.5242 12.6661 14.3162 12.9471L13.8812 13.5101C13.6602 13.7961 13.2472 13.7581 13.2472 13.7581C10.2332 12.9611 9.42722 9.8071 9.42722 9.8071C9.42722 9.8071 9.39022 9.3801 9.66622 9.1511L10.2102 8.7011C10.4822 8.4851 10.6542 7.9651 10.3772 7.4541C9.63722 6.1171 9.14022 5.6561 8.88722 5.3021C8.62122 4.9691 8.22121 4.8941 7.80521 5.1191H7.79621C6.93121 5.6251 5.98421 6.5721 6.28721 7.5471C6.80421 8.5751 7.75421 11.8521 10.7822 14.3281C12.2052 15.4991 14.4572 16.6991 15.4132 16.9761L15.4222 16.9901C16.3642 17.3041 17.2802 16.3201 17.7692 15.4291V15.4221C17.9862 14.9911 17.9142 14.5831 17.5972 14.3161C17.0352 13.7681 16.1872 13.1631 15.5212 12.7741Z" fill="white"/>
<path d="M13.1689 8.10418C14.1299 8.16018 14.5959 8.66218 14.6459 9.69318C14.6639 10.0962 15.2489 10.0682 15.2309 9.66518C15.1669 8.31918 14.4649 7.56917 13.2009 7.49917C12.8159 7.47617 12.7799 8.08118 13.1689 8.10418Z" fill="white"/>
</g>
<defs>
<clipPath id="clip0">
<rect width="24" height="24" fill="white"/>
</clipPath>
</defs>
</svg>
